#!OML:ASF F:\VICON\USERDATA\INSTALL\Justin_Nancy\Justin_Nancy.ASF
:FULLY-SPECIFIED
:DEGREES
82
root -0.484911 16.7046 12.839 4.30602 -44.6655 5.83147
lowerback 8.18132 1.63792 1.72745
upperback 0.0126332 2.40618 1.58361
thorax -4.57295 1.16329 0.385333
lowerneck -13.7738 -5.10951 -11.3473
upperneck 16.1911 -5.78339 6.42791
head 7.79107 -2.88079 3.34809
rclavicle 3.51849e-014 6.36111e-015
rhumerus -47.1884 14.162 -96.0692
rradius 126.671
rwrist -5.49965
rhand -16.6535 31.1943
rfingers 7.12502
rthumb 9.56968 1.43162
lclavicle 3.51849e-014 6.36111e-015
lhumerus -64.2424 -10.7014 98.868
lradius 105.715
lwrist 26.7534
lhand -14.762 7.28466
lfingers 7.12502
lthumb 11.3943 36.9551
rfemur 11.4019 4.27489 33.5152
rtibia 26.966
rfoot 10.5946 5.58843
rtoes 2.34747
lfemur -46.1836 5.44265 -8.56019
ltibia 53.3054
lfoot -2.87561 5.39984
ltoes -8.65704
83
root -0.823023 16.7896 13.33 4.03005 -44.4212 6.15673
lowerback 7.89898 1.703 1.63238
upperback -0.16507 2.4752 1.40923
thorax -4.59519 1.19838 0.255512
lowerneck -13.4627 -5.19015 -11.6071
upperneck 16.4786 -5.96711 6.81887
head 7.86876 -2.95928 3.50698
rclavicle -1.4074e-013 3.18055e-015
rhumerus -47.7171 15.2128 -96.2981
rradius 126.647
rwrist -4.315
rhand -16.347 31.5279
rfingers 7.12502
rthumb 9.86542 1.77899
lclavicle -1.4074e-013 3.18055e-015
lhumerus -64.8145 -10.3048 98.3966
lradius 106.137
lwrist 25.9712
lhand -16.3445 5.03856
lfingers 7.12502
lthumb 9.86777 34.7873
rfemur 12.2356 5.56037 32.908
rtibia 27.2744
rfoot 18.0804 6.59634
rtoes 7.47384
lfemur -45.5207 4.79148 -9.55361
ltibia 48.3646
lfoot -1.62068 2.65198
ltoes -13.7177
84
root -1.1348 16.7943 13.8236 3.7304 -44.4623 6.38121
lowerback 7.39638 1.88742 1.88996
upperback -0.047213 2.71234 1.0445
thorax -4.15858 1.31176 -0.272598
lowerneck -13.5474 -5.31334 -11.7499
upperneck 16.7899 -6.22148 7.37321
head 8.03396 -3.04039 3.68833
rclavicle 2.96189e-014 -1.74931e-014
rhumerus -47.8456 15.987 -96.4476
rradius 126.556
rwrist -3.1546
rhand -16.2006 31.4341
rfingers 7.12502
rthumb 10.0067 1.69196
lclavicle 2.96189e-014 -1.74931e-014
lhumerus -64.9518 -10.3937 97.6204
lradius 106.681
lwrist 25.6957
lhand -16.0719 4.45293
lfingers 7.12502
lthumb 10.1308 34.189
rfemur 12.5924 6.9305 32.4415
rtibia 28.6639
rfoot 23.4476 7.36075
rtoes 10.8142
lfemur -44.0766 4.54137 -10.5798
ltibia 43.5698
lfoot -1.01138 -0.0863495
ltoes -19.9557
85
root -1.43287 16.7626 14.3107 3.80693 -44.445 6.09833
lowerback 7.0978 1.94741 2.402
upperback -0.0490555 2.8193 0.859957
thorax -3.95713 1.35556 -0.748716
lowerneck -13.8348 -5.29963 -11.6074
upperneck 17.3378 -6.25116 7.47666
head 8.26885 -3.03587 3.6968
rclavicle 6.7388e-014 -3.18055e-014
rhumerus -47.9479 16.8717 -96.6882
rradius 126.268
rwrist -2.43639
rhand -15.6473 30.7246
rfingers 7.12502
rthumb 10.5404 1.00888
lclavicle 6.7388e-014 -3.18055e-014
lhumerus -65.2352 -10.0569 96.921
lradius 107.336
lwrist 25.2211
lhand -15.8063 4.30301
lfingers 7.12502
lthumb 10.387 34.0265
rfemur 12.3934 7.94398 32.3749
rtibia 30.998
rfoot 26.297 8.79116
rtoes 16.8582
lfemur -42.6552 4.40025 -11.2686
ltibia 39.5117
lfoot -1.69696 -2.49923
ltoes -29.3413
86
root -1.74635 16.7932 14.7806 3.67236 -44.2448 6.02323
lowerback 7.23196 1.89764 2.44728
upperback -0.138486 2.7639 0.863857
thorax -4.12513 1.32432 -0.771623
lowerneck -13.8413 -5.2256 -11.5119
upperneck 17.4603 -6.15646 7.37802
head 8.29471 -2.99571 3.66035
rclavicle -6.44062e-014 -3.97569e-014
rhumerus -48.0715 17.8201 -96.7006
rradius 125.909
rwrist -2.23383
rhand -15.0338 29.993
rfingers 7.12502
rthumb 11.1321 0.308292
lclavicle -6.44062e-014 -3.97569e-014
lhumerus -65.5143 -9.45957 96.5291
lradius 107.992
lwrist 24.7035
lhand -15.0366 4.81776
lfingers 7.12502
lthumb 11.1295 34.5026
rfemur 11.8065 8.54833 32.2502
rtibia 34.0517
rfoot 24.5652 10.1344
rtoes 12.5581
lfemur -41.633 4.02159 -12.0752
ltibia 36.1147
lfoot -2.86927 -3.94348
ltoes -36.8918
87
root -2.06993 16.8632 15.2436 3.688 -44.3684 5.65448
lowerback 7.47209 1.92607 2.70773
upperback -0.152522 2.83441 0.920667
thorax -4.26325 1.35158 -0.875433
lowerneck -13.9332 -5.26374 -11.7284
upperneck 17.4845 -6.17599 7.50164
head 8.33294 -3.00571 3.73446
rclavicle -8.94531e-015 1.59028e-014
rhumerus -48.4283 18.6616 -96.7595
rradius 125.653
rwrist -2.24206
rhand -15.0221 29.7722
rfingers 7.12502
rthumb 11.1434 0.0880687
lclavicle -8.94531e-015 1.59028e-014
lhumerus -65.497 -9.02053 96.2297
lradius 108.603
lwrist 24.5661
lhand -12.7647 7.26689
lfingers 7.12502
lthumb 13.32 36.8212
rfemur 10.9785 9.33709 32.403
rtibia 37.9253
rfoot 22.3268 9.48036
rtoes 14.706
lfemur -41.0914 3.34011 -12.1949
ltibia 33.8567
lfoot -1.74531 -4.04893
ltoes -32.0729
88
root -2.4019 16.9355 15.7117 3.37204 -44.5996 5.46224
lowerback 7.72123 2.00602 2.77342
upperback 0.0453045 2.95014 0.956498
thorax -4.19218 1.40953 -0.892901
lowerneck -14.2999 -5.40519 -11.7664
upperneck 17.4993 -6.31594 7.49321
head 8.4199 -3.06633 3.71408
rclavicle 9.54166e-015 -1.74931e-014
rhumerus -48.5764 19.251 -96.803
rradius 125.246
rwrist -2.6646
rhand -14.9281 29.5036
rfingers 7.12502
rthumb 11.2341 -0.175566
lclavicle 9.54166e-015 -1.74931e-014
lhumerus -65.0776 -8.84368 95.9814
lradius 109.05
lwrist 24.6441
lhand -14.7786 4.6212
lfingers 7.12502
lthumb 11.3782 34.2925
rfemur 10.3185 9.70896 32.2416
rtibia 42.1015
rfoot 18.7196 7.52398
rtoes 12.1905
lfemur -40.6078 1.61707 -11.6174
ltibia 32.292
lfoot 0.353783 -1.5413
ltoes -12.2506
89
root -2.67492 16.9353 16.0732 4.13074 -44.5385 3.89214
lowerback 9.27888 1.9158 3.07692
upperback -0.121508 2.94974 1.49524
thorax -5.25684 1.38598 -0.569743
lowerneck -14.695 -5.37546 -11.5916
upperneck 17.482 -6.20346 7.20055
head 8.45804 -3.02044 3.59285
rclavicle -4.41302e-014 9.54166e-015
rhumerus -48.719 19.847 -96.8816
rradius 124.629
rwrist -3.18943
rhand -14.5663 29.5217
rfingers 7.12502
rthumb 11.583 -0.138152
lclavicle -4.41302e-014 9.54166e-015
lhumerus -64.6076 -8.46624 95.8927
lradius 109.594
lwrist 24.8318
lhand -15.2016 4.13516
lfingers 7.12502
lthumb 10.9703 33.8285
rfemur 8.49774 10.0283 33.5279
rtibia 46.7013
rfoot 17.018 3.97162
rtoes 9.6882
lfemur -40.2724 2.09284 -11.4011
ltibia 31.7305
lfoot 1.56163 -1.39091
ltoes -20.6608
90
root -2.98326 16.914 16.5279 3.69458 -44.7361 3.89858
lowerback 9.50805 1.87795 2.74622
upperback 0.0787788 2.87325 1.66955
thorax -5.20302 1.36013 -0.197971
lowerneck -15.1271 -5.24456 -11.4718
upperneck 17.4791 -5.91821 6.82861
head 8.49041 -2.90469 3.47569
rclavicle 1.25036e-013 1.59028e-015
rhumerus -48.9389 20.2716 -96.7579
rradius 123.95
rwrist -3.78218
rhand -14.2793 29.668
rfingers 7.12502
rthumb 11.8598 0.0239055
lclavicle 1.25036e-013 1.59028e-015
lhumerus -63.9016 -8.03324 95.9215
lradius 110.256
lwrist 25.3324
lhand -16.3703 4.48789
lfingers 7.12502
lthumb 9.8429 34.2378
rfemur 6.92824 9.81768 32.9964
rtibia 51.5646
rfoot 16.013 0.620855
rtoes 7.4511
lfemur -39.3149 0.921137 -11.433
ltibia 31.6825
lfoot 2.31848 0.412497
ltoes -8.84147
91
root -3.3397 16.9481 17.0726 1.81242 -45.2849 5.08524
lowerback 8.99172 1.88778 2.32365
upperback 0.818107 2.78099 1.33541
thorax -4.14526 1.33833 -0.262702
lowerneck -15.3767 -5.11479 -11.2246
upperneck 17.2031 -5.7151 6.64658
head 8.40822 -2.80147 3.39343
rclavicle 5.50634e-014 4.77083e-015
rhumerus -49.0234 20.3049 -96.8874
rradius 123.102
rwrist -4.37913
rhand -13.9559 29.7157
rfingers 7.12502
rthumb 12.1716 0.089754
lclavicle 5.50634e-014 4.77083e-015
lhumerus -62.869 -7.9469 95.7195
lradius 110.915
lwrist 26.2395
lhand -14.0962 7.01331
lfingers 7.12502
lthumb 12.0363 36.6472
rfemur 6.34083 9.10374 30.9663
rtibia 56.1471
rfoot 15.1224 -1.37478
rtoes 4.84489
lfemur -36.8782 1.21266 -13.6391
ltibia 32.4717
lfoot 2.14055 -0.639293
ltoes -19.3029
